<svg
 xmlns="http://www.w3.org/2000/svg"
 xmlns:xlink="http://www.w3.org/1999/xlink"
 width="28px" height="29px">
<path fill-rule="evenodd"  fill="rgb(117, 28, 89)"
 d="M16.500,14.283 L27.128,24.911 C27.832,25.616 27.832,26.759 27.128,27.463 C26.423,28.168 25.280,28.168 24.576,27.463 L13.948,16.835 L3.280,27.503 C2.576,28.207 1.433,28.207 0.728,27.503 C0.024,26.798 0.024,25.656 0.728,24.951 L11.396,14.284 L0.731,3.618 C0.026,2.913 0.026,1.771 0.731,1.066 C1.435,0.362 2.578,0.362 3.282,1.066 L13.948,11.732 L24.574,1.106 C25.278,0.402 26.421,0.402 27.125,1.106 C27.830,1.811 27.830,2.953 27.125,3.657 L16.500,14.283 Z"/>
</svg>