<svg
 xmlns="http://www.w3.org/2000/svg"
 xmlns:xlink="http://www.w3.org/1999/xlink"
 width="65px" height="65px">
<path fill-rule="evenodd"  stroke-width="1px" stroke="#b44c94" fill="#b44c94"
 d="M55.681,12.391 C55.681,14.031 54.347,15.364 52.708,15.364 C51.068,15.364 49.734,14.031 49.734,12.391 C49.734,10.752 51.068,9.418 52.708,9.418 C54.347,9.418 55.681,10.752 55.681,12.391 ZM51.417,12.391 C51.417,13.103 51.996,13.681 52.708,13.681 C53.419,13.681 53.998,13.103 53.998,12.391 C53.998,11.679 53.419,11.101 52.708,11.101 C51.996,11.101 51.417,11.679 51.417,12.391 ZM29.431,16.243 L33.092,22.770 L37.168,22.770 C38.253,22.770 38.253,24.452 37.168,24.452 L19.777,24.452 C19.313,24.452 18.936,24.076 18.936,23.611 C18.936,16.156 25.001,10.091 32.456,10.091 C39.911,10.091 45.976,16.156 45.976,23.611 C45.976,24.076 45.599,24.452 45.134,24.452 L41.768,24.452 C41.304,24.452 40.927,24.076 40.927,23.611 C40.927,23.146 41.304,22.770 41.768,22.770 L44.263,22.770 C44.074,20.092 42.991,17.658 41.311,15.764 L40.185,16.891 C39.418,17.658 38.227,16.468 38.995,15.700 L40.108,14.587 C38.972,13.623 37.653,12.869 36.210,12.385 L35.791,13.948 C35.511,14.993 33.885,14.562 34.166,13.513 L34.580,11.966 C33.098,11.696 31.566,11.711 30.090,12.012 L30.515,13.597 C30.796,14.646 29.169,15.078 28.889,14.033 L28.469,12.465 C27.032,12.981 25.722,13.767 24.601,14.763 L25.770,15.932 C26.538,16.699 25.347,17.889 24.580,17.122 L23.425,15.967 C21.845,17.830 20.831,20.187 20.648,22.770 L31.163,22.770 L27.963,17.066 C27.432,16.120 28.900,15.296 29.431,16.243 ZM14.784,49.697 C16.424,49.697 17.758,51.031 17.758,52.670 C17.758,54.310 16.424,55.644 14.784,55.644 C13.145,55.644 11.811,54.310 11.811,52.670 C11.811,51.031 13.145,49.697 14.784,49.697 ZM14.784,53.960 C15.496,53.960 16.075,53.382 16.075,52.670 C16.075,51.959 15.496,51.380 14.784,51.380 C14.073,51.380 13.494,51.959 13.494,52.670 C13.494,53.382 14.073,53.960 14.784,53.960 ZM9.231,12.391 C9.231,10.752 10.564,9.418 12.204,9.418 C13.844,9.418 15.177,10.752 15.177,12.391 C15.177,14.031 13.843,15.364 12.204,15.364 C10.564,15.364 9.231,14.031 9.231,12.391 ZM12.204,13.681 C12.916,13.681 13.494,13.103 13.494,12.391 C13.494,11.679 12.915,11.101 12.204,11.101 C11.492,11.101 10.914,11.679 10.914,12.391 C10.914,13.103 11.492,13.681 12.204,13.681 ZM61.149,14.358 L58.563,52.462 C58.220,57.518 53.985,61.478 48.920,61.478 L15.991,61.478 C10.927,61.478 6.692,57.518 6.348,52.462 L5.761,43.807 C5.688,42.724 7.367,42.611 7.440,43.693 L8.028,52.348 C8.311,56.524 11.809,59.795 15.991,59.795 L48.920,59.795 C53.103,59.795 56.601,56.524 56.884,52.348 L59.470,14.244 C59.779,9.693 56.068,5.715 51.506,5.715 L13.406,5.715 C8.843,5.715 5.133,9.693 5.442,14.244 L7.128,39.093 C7.202,40.176 5.522,40.290 5.449,39.207 L3.763,14.358 C3.389,8.848 7.881,4.032 13.406,4.032 L51.506,4.032 C54.211,4.032 56.718,5.121 58.566,7.098 C60.415,9.077 61.332,11.655 61.149,14.358 Z"/>
</svg>