<svg
 xmlns="http://www.w3.org/2000/svg"
 xmlns:xlink="http://www.w3.org/1999/xlink"
 width="54px" height="57px">
<path fill-rule="evenodd"  fill="#b34992"
 d="M53.484,14.356 C53.472,15.601 52.913,16.565 51.803,17.114 C51.311,17.356 51.237,17.651 51.237,18.125 C51.247,28.922 51.246,39.718 51.241,50.515 C51.240,53.257 49.658,55.336 47.100,55.936 C46.616,56.049 46.102,56.066 45.602,56.066 C33.165,56.073 20.728,56.042 8.291,56.092 C5.053,56.105 2.635,53.685 2.647,50.437 C2.685,39.663 2.657,28.888 2.669,18.114 C2.670,17.626 2.564,17.349 2.091,17.109 C0.986,16.550 0.427,15.591 0.420,14.344 C0.409,12.593 0.406,10.841 0.420,9.089 C0.435,7.309 1.754,5.985 3.530,5.956 C4.445,5.942 5.359,5.954 6.369,5.954 C6.369,5.337 6.328,4.831 6.376,4.333 C6.579,2.219 8.191,0.743 10.211,0.793 C12.272,0.843 13.809,2.403 13.906,4.556 C13.926,4.990 13.909,5.426 13.909,5.905 C16.995,5.905 20.027,5.905 23.174,5.905 C23.174,5.488 23.164,5.061 23.175,4.635 C23.232,2.435 24.820,0.810 26.925,0.792 C29.027,0.774 30.639,2.376 30.727,4.581 C30.744,5.013 30.729,5.447 30.729,5.913 C33.834,5.913 36.867,5.913 39.993,5.913 C39.993,5.469 39.982,5.039 39.995,4.610 C40.061,2.415 41.667,0.793 43.769,0.792 C45.849,0.790 47.438,2.365 47.544,4.541 C47.565,4.977 47.547,5.414 47.547,5.949 C48.389,5.949 49.193,5.993 49.991,5.941 C52.321,5.791 53.596,7.659 53.506,9.430 C53.422,11.068 53.499,12.714 53.484,14.356 ZM8.090,53.933 C20.594,53.936 33.099,53.912 45.603,53.960 C47.364,53.967 49.165,52.778 49.093,50.501 C49.031,48.532 49.082,46.559 49.079,44.588 C49.079,44.402 49.054,44.216 49.033,43.920 C48.803,44.134 48.644,44.273 48.496,44.420 C46.760,46.153 45.008,47.870 43.296,49.627 C42.092,50.862 40.654,51.419 38.945,51.418 C28.740,51.409 18.535,51.411 8.330,51.416 C7.186,51.417 6.121,51.177 5.153,50.550 C5.075,50.499 4.975,50.483 4.874,50.447 C4.702,52.478 6.057,53.932 8.090,53.933 ZM48.318,41.292 C46.285,41.292 44.148,41.276 42.011,41.303 C41.457,41.310 41.131,41.694 41.127,42.250 C41.112,44.347 41.121,46.444 41.121,48.505 C43.541,46.080 45.945,43.670 48.318,41.292 ZM4.830,45.782 C4.830,46.171 4.862,46.576 4.969,46.947 C5.418,48.499 6.565,49.259 8.425,49.260 C18.345,49.263 28.265,49.261 38.185,49.261 C38.419,49.261 38.652,49.261 38.943,49.261 C38.943,48.935 38.943,48.697 38.943,48.459 C38.943,46.531 38.940,44.604 38.944,42.677 C38.950,40.429 40.253,39.117 42.484,39.112 C44.433,39.107 46.382,39.110 48.331,39.110 C48.563,39.110 48.794,39.110 49.033,39.110 C49.033,31.865 49.033,24.718 49.033,17.544 C34.300,17.544 19.613,17.544 4.855,17.544 C4.843,17.774 4.825,17.947 4.825,18.120 C4.824,27.341 4.822,36.561 4.830,45.782 ZM11.715,4.312 C11.657,3.576 11.029,2.993 10.292,2.930 C9.522,2.864 8.723,3.338 8.601,4.066 C8.500,4.667 8.580,5.298 8.580,5.929 C9.638,5.929 10.635,5.929 11.722,5.929 C11.722,5.349 11.754,4.827 11.715,4.312 ZM28.519,4.201 C28.438,3.483 27.747,2.945 26.999,2.927 C26.251,2.909 25.508,3.404 25.406,4.110 C25.321,4.696 25.388,5.305 25.388,5.914 C26.460,5.914 27.474,5.914 28.531,5.914 C28.531,5.319 28.581,4.754 28.519,4.201 ZM45.378,4.667 C45.377,4.537 45.374,4.405 45.357,4.276 C45.257,3.525 44.602,2.950 43.829,2.927 C43.053,2.904 42.305,3.430 42.211,4.162 C42.139,4.732 42.197,5.318 42.197,5.917 C43.271,5.917 44.285,5.917 45.378,5.917 C45.378,5.449 45.380,5.058 45.378,4.667 ZM51.359,9.397 C51.354,8.400 51.007,8.060 50.011,8.059 C47.603,8.056 45.195,8.057 42.787,8.059 C42.596,8.059 42.406,8.081 42.164,8.095 C42.164,8.438 42.163,8.741 42.164,9.043 C42.168,10.442 42.514,10.853 43.891,11.097 C44.494,11.204 44.864,11.665 44.819,12.252 C44.776,12.805 44.361,13.179 43.764,13.204 C42.071,13.275 40.394,11.938 40.108,10.234 C39.991,9.534 39.989,8.814 39.933,8.090 C35.073,8.090 30.245,8.090 25.344,8.090 C25.344,8.443 25.343,8.765 25.345,9.086 C25.350,10.433 25.728,10.878 27.050,11.095 C27.661,11.196 28.035,11.642 28.000,12.230 C27.966,12.810 27.538,13.191 26.901,13.205 C25.188,13.243 23.559,11.910 23.283,10.191 C23.174,9.509 23.172,8.810 23.119,8.104 C18.254,8.104 13.409,8.104 8.525,8.104 C8.525,8.476 8.523,8.803 8.525,9.130 C8.533,10.428 8.937,10.899 10.208,11.093 C10.855,11.193 11.239,11.658 11.180,12.273 C11.125,12.842 10.686,13.202 10.039,13.205 C8.341,13.214 6.743,11.900 6.467,10.214 C6.355,9.530 6.353,8.828 6.295,8.058 C5.461,8.058 4.675,8.055 3.889,8.058 C2.896,8.062 2.551,8.400 2.546,9.401 C2.539,10.955 2.539,12.510 2.547,14.064 C2.552,15.061 2.892,15.399 3.902,15.400 C19.270,15.402 34.638,15.402 50.006,15.399 C51.013,15.399 51.354,15.058 51.359,14.060 C51.367,12.506 51.367,10.951 51.359,9.397 ZM21.852,30.144 C21.192,30.182 20.679,29.866 20.264,29.368 C19.081,27.952 19.054,25.933 20.314,24.566 C21.543,23.230 22.824,21.934 24.167,20.713 C25.296,19.687 26.661,19.482 28.073,20.131 C29.471,20.772 30.240,21.887 30.246,23.437 C30.265,28.625 30.255,33.814 30.257,39.002 C30.257,39.262 30.257,39.521 30.257,39.821 C30.410,39.849 30.474,39.875 30.537,39.871 C33.077,39.724 34.393,41.685 33.739,44.391 C33.457,45.559 32.318,46.399 31.043,46.410 C28.350,46.433 25.658,46.439 22.965,46.407 C21.533,46.390 20.418,45.407 20.225,43.978 C20.136,43.319 20.157,42.615 20.288,41.963 C20.522,40.796 21.670,39.948 22.932,39.883 C23.189,39.870 23.447,39.881 23.741,39.881 C23.741,36.516 23.741,33.221 23.741,29.950 C23.099,30.018 22.477,30.109 21.852,30.144 ZM25.894,40.771 C25.893,41.618 25.508,42.001 24.648,42.026 C24.167,42.040 23.684,42.017 23.203,42.033 C22.455,42.058 22.322,42.237 22.322,43.155 C22.322,44.069 22.453,44.251 23.216,44.261 C24.420,44.278 25.624,44.267 26.828,44.267 C28.142,44.267 29.455,44.275 30.769,44.263 C31.539,44.256 31.699,44.085 31.713,43.337 C31.716,43.162 31.709,42.987 31.713,42.812 C31.723,42.291 31.444,42.050 30.948,42.037 C30.511,42.025 30.072,42.031 29.635,42.029 C28.471,42.023 28.141,41.699 28.140,40.557 C28.139,37.776 28.140,34.995 28.139,32.215 C28.139,29.346 28.139,26.478 28.140,23.610 C28.140,22.913 27.870,22.366 27.216,22.084 C26.604,21.819 25.996,21.885 25.511,22.359 C24.306,23.537 23.088,24.707 21.958,25.956 C21.670,26.274 21.580,26.877 21.597,27.341 C21.621,27.976 21.984,28.158 22.594,27.969 C23.135,27.801 23.665,27.596 24.199,27.404 C25.241,27.030 25.893,27.464 25.894,28.554 C25.899,32.626 25.899,36.699 25.894,40.771 Z"/>
</svg>