<svg
 xmlns="http://www.w3.org/2000/svg"
 xmlns:xlink="http://www.w3.org/1999/xlink"
 width="36px" height="41px">
<path fill-rule="evenodd"  fill="rgb(192, 219, 239)"
 d="M18.167,5.250 C27.901,5.250 35.792,13.132 35.792,22.854 C35.792,32.577 27.901,40.458 18.167,40.458 C8.433,40.458 0.542,32.577 0.542,22.854 C0.542,13.132 8.433,5.250 18.167,5.250 Z"/>
<path fill-rule="evenodd"  fill="rgb(255, 255, 255)"
 d="M18.167,0.583 C27.901,0.583 35.792,8.465 35.792,18.188 C35.792,27.910 27.901,35.792 18.167,35.792 C8.433,35.792 0.542,27.910 0.542,18.188 C0.542,8.465 8.433,0.583 18.167,0.583 Z"/>
<path fill-rule="evenodd"  fill="rgb(64, 97, 148)"
 d="M30.234,14.626 L17.631,27.229 C17.583,27.288 17.562,27.360 17.507,27.415 C16.675,28.248 15.325,28.248 14.493,27.415 L14.464,27.386 C14.463,27.385 14.462,27.385 14.461,27.384 C14.461,27.383 14.461,27.383 14.460,27.382 L7.079,20.001 C6.246,19.169 6.246,17.819 7.079,16.987 C7.911,16.154 9.261,16.154 10.094,16.987 L15.969,22.862 L27.219,11.611 C28.051,10.779 29.401,10.779 30.234,11.611 C31.066,12.443 31.066,13.793 30.234,14.626 Z"/>
</svg>