<svg
 xmlns="http://www.w3.org/2000/svg"
 xmlns:xlink="http://www.w3.org/1999/xlink"
 width="38px" height="38px">
<path fill-rule="evenodd"  fill="rgb(139, 14, 101)"
 d="M36.233,24.209 C34.538,23.711 32.824,23.207 30.989,22.667 C32.203,18.252 31.812,14.174 29.343,10.437 C25.722,4.957 18.613,3.055 12.486,4.749 C5.916,6.566 1.842,13.129 2.200,19.958 C2.238,20.681 2.230,21.420 2.125,22.118 C2.037,22.705 1.822,23.241 1.258,23.685 C-0.397,19.721 -0.068,15.909 1.418,12.243 C4.066,5.710 7.293,3.395 10.979,1.779 C14.666,0.162 19.107,0.242 20.749,0.432 C22.391,0.621 27.602,1.908 30.672,4.504 C36.184,9.165 38.698,17.816 36.233,24.209 ZM6.571,29.911 C7.296,29.911 7.885,30.499 7.885,31.225 C7.885,31.950 7.296,32.539 6.571,32.539 C5.845,32.539 5.257,31.950 5.257,31.225 C5.257,30.499 5.845,29.911 6.571,29.911 ZM13.843,33.089 C14.927,33.089 15.805,33.967 15.805,35.051 C15.805,36.135 14.927,37.014 13.843,37.014 C12.759,37.014 11.880,36.135 11.880,35.051 C11.880,33.967 12.759,33.089 13.843,33.089 ZM14.719,19.479 C15.076,17.631 16.539,16.585 19.179,16.717 C19.277,16.683 19.901,16.554 20.435,16.259 C21.982,15.406 23.451,14.401 25.039,13.640 C25.611,13.365 26.434,13.612 27.142,13.622 C26.899,14.340 26.836,15.214 26.375,15.742 C25.565,16.669 22.807,18.182 21.970,19.091 C21.078,20.060 21.874,20.261 21.240,21.412 C20.416,22.910 18.727,23.779 17.147,23.263 C15.466,22.714 14.411,21.069 14.719,19.479 ZM22.723,32.686 C24.029,32.686 25.088,33.745 25.088,35.051 C25.088,36.357 24.029,37.416 22.723,37.416 C21.417,37.416 20.358,36.357 20.358,35.051 C20.358,33.745 21.417,32.686 22.723,32.686 ZM30.051,27.184 C31.527,27.031 32.829,28.323 32.865,29.857 C32.904,31.454 31.774,32.638 30.200,32.649 C28.690,32.660 27.332,31.385 27.436,29.907 C27.547,28.331 28.461,27.349 30.051,27.184 Z"/>
</svg>