<svg
 xmlns="http://www.w3.org/2000/svg"
 xmlns:xlink="http://www.w3.org/1999/xlink"
 width="31px" height="32px">
<path fill-rule="evenodd"  fill="rgb(179, 73, 146)"
 d="M28.979,18.898 L18.375,18.898 L18.375,29.480 C18.375,30.584 17.480,31.480 16.375,31.480 L14.979,31.480 C13.875,31.480 12.979,30.584 12.979,29.480 L12.979,18.898 L2.417,18.898 C1.312,18.898 0.417,18.003 0.417,16.898 L0.417,15.503 C0.417,14.399 1.312,13.503 2.417,13.503 L12.979,13.503 L12.979,2.922 C12.979,1.817 13.875,0.922 14.979,0.922 L16.375,0.922 C17.480,0.922 18.375,1.817 18.375,2.922 L18.375,13.503 L28.979,13.503 C30.084,13.503 30.979,14.399 30.979,15.503 L30.979,16.898 C30.979,18.003 30.084,18.898 28.979,18.898 Z"/>
</svg>