<svg
 xmlns="http://www.w3.org/2000/svg"
 xmlns:xlink="http://www.w3.org/1999/xlink"
 width="28px" height="37px">
<defs>
<filter id="Filter_0">
    <feFlood flood-color="rgb(64, 97, 148)" flood-opacity="1" result="floodOut" />
    <feComposite operator="atop" in="floodOut" in2="SourceGraphic" result="compOut" />
    <feBlend mode="normal" in="compOut" in2="SourceGraphic" />
</filter>

</defs>
<g filter="url(#Filter_0)">
<path fill-rule="evenodd"  fill="rgb(179, 73, 146)"
 d="M27.525,19.487 C27.489,22.658 26.814,25.377 25.460,27.800 C24.265,29.939 22.487,31.783 20.024,33.439 C18.275,34.614 16.396,35.563 14.772,36.360 C14.535,36.476 14.302,36.535 14.075,36.535 C13.869,36.535 13.667,36.487 13.472,36.391 C11.300,35.325 9.005,34.151 6.918,32.553 C3.609,30.019 1.615,26.736 0.991,22.795 C0.779,21.456 0.664,20.115 0.650,18.809 C0.619,15.915 0.625,12.973 0.630,10.127 C0.632,9.019 0.635,7.911 0.635,6.803 C0.635,5.979 0.943,5.546 1.735,5.259 C5.686,3.824 9.637,2.387 13.588,0.949 C13.589,0.948 13.597,0.942 13.606,0.937 C13.622,0.926 13.638,0.916 13.655,0.907 L13.729,0.865 L14.418,0.865 L15.892,1.407 C16.973,1.804 18.054,2.202 19.136,2.597 C20.546,3.112 21.957,3.626 23.368,4.140 C24.390,4.512 25.413,4.884 26.435,5.257 C27.241,5.551 27.540,5.978 27.540,6.831 L27.540,6.831 C27.540,8.082 27.542,9.333 27.545,10.584 C27.552,13.502 27.558,16.519 27.525,19.487 ZM24.715,10.097 C24.714,9.286 24.712,8.473 24.712,7.657 C24.672,7.641 24.633,7.626 24.593,7.612 L23.315,7.147 C20.334,6.061 17.250,4.939 14.215,3.843 C14.149,3.820 14.031,3.824 13.951,3.853 C12.118,4.511 10.257,5.188 8.457,5.843 L3.463,7.658 L3.463,7.687 C3.463,8.704 3.461,9.721 3.460,10.737 C3.456,13.368 3.452,16.088 3.475,18.762 C3.483,19.749 3.567,20.803 3.730,21.985 C4.170,25.178 5.705,27.860 8.290,29.957 C10.130,31.449 12.238,32.587 14.058,33.503 C14.074,33.507 14.107,33.506 14.122,33.501 C15.682,32.721 17.718,31.641 19.579,30.207 C22.599,27.882 24.279,24.779 24.572,20.984 C24.686,19.509 24.696,17.997 24.706,16.534 L24.707,16.431 C24.720,14.325 24.717,12.176 24.715,10.097 ZM7.223,18.157 L9.170,16.210 L12.726,19.775 L19.616,12.880 L21.576,14.841 L12.742,23.673 L7.223,18.157 Z"/>
</g>
</svg>