<svg
 xmlns="http://www.w3.org/2000/svg"
 xmlns:xlink="http://www.w3.org/1999/xlink"
 width="32px" height="32px">
<path fill-rule="evenodd"  fill="rgb(139, 14, 101)"
 d="M30.991,21.681 C29.007,26.732 25.409,30.051 20.163,31.452 C15.935,32.580 11.903,31.941 8.134,29.710 C7.912,29.579 7.788,29.578 7.605,29.771 C7.058,30.345 6.489,30.897 5.925,31.454 C5.400,31.973 4.835,32.113 4.257,31.851 C3.640,31.571 3.378,31.078 3.382,30.405 C3.393,28.564 3.385,26.722 3.386,24.880 C3.387,24.012 3.932,23.399 4.803,23.388 C6.711,23.363 8.620,23.374 10.528,23.384 C11.157,23.388 11.621,23.699 11.856,24.283 C12.098,24.882 11.949,25.422 11.500,25.877 C10.999,26.384 10.489,26.883 9.939,27.428 C10.989,28.020 12.033,28.449 13.143,28.707 C17.312,29.676 21.091,28.834 24.410,26.143 C26.886,24.136 28.380,21.512 28.906,18.360 C29.022,17.670 29.065,16.965 29.101,16.265 C29.144,15.429 29.728,14.809 30.530,14.806 C31.338,14.802 31.982,15.445 31.976,16.286 C31.962,18.140 31.669,19.953 30.991,21.681 ZM27.850,9.081 C27.706,9.098 27.560,9.103 27.416,9.103 C25.685,9.104 23.955,9.107 22.225,9.101 C21.993,9.100 21.750,9.091 21.531,9.024 C20.514,8.713 20.201,7.478 20.931,6.673 C21.186,6.393 21.462,6.131 21.732,5.864 C21.993,5.606 22.257,5.351 22.550,5.065 C22.423,4.986 22.337,4.924 22.243,4.875 C20.076,3.749 17.783,3.260 15.337,3.424 C9.878,3.790 5.217,7.691 3.835,12.916 C3.548,14.001 3.412,15.102 3.386,16.220 C3.367,17.055 2.759,17.675 1.956,17.674 C1.148,17.674 0.506,17.031 0.516,16.187 C0.567,12.329 1.814,8.904 4.330,5.977 C6.798,3.105 9.931,1.343 13.661,0.720 C17.477,0.083 21.063,0.798 24.391,2.779 C24.467,2.824 24.544,2.868 24.682,2.949 C25.341,2.277 25.978,1.604 26.642,0.960 C27.370,0.252 28.455,0.390 28.916,1.245 C29.028,1.452 29.097,1.709 29.098,1.944 C29.113,3.853 29.109,5.762 29.105,7.672 C29.104,8.414 28.582,8.995 27.850,9.081 Z"/>
</svg>