<svg
 xmlns="http://www.w3.org/2000/svg"
 xmlns:xlink="http://www.w3.org/1999/xlink"
 width="28px" height="36px">
<path fill-rule="evenodd"  fill="rgb(139, 14, 101)"
 d="M27.191,18.820 C27.156,21.991 26.480,24.710 25.127,27.133 C23.932,29.272 22.153,31.116 19.690,32.772 C17.942,33.947 16.063,34.896 14.438,35.693 C14.202,35.810 13.969,35.868 13.742,35.868 C13.536,35.868 13.334,35.820 13.138,35.724 C10.967,34.658 8.672,33.484 6.584,31.886 C3.276,29.353 1.282,26.070 0.657,22.128 C0.445,20.789 0.331,19.448 0.317,18.142 C0.286,15.248 0.292,12.306 0.297,9.461 C0.299,8.352 0.301,7.244 0.301,6.136 C0.301,5.313 0.610,4.880 1.402,4.592 C5.353,3.157 9.304,1.720 13.255,0.283 C13.255,0.281 13.264,0.276 13.272,0.270 C13.289,0.260 13.305,0.249 13.322,0.240 L13.396,0.198 L14.084,0.198 L15.559,0.740 C16.640,1.138 17.721,1.535 18.803,1.930 C20.213,2.445 21.624,2.959 23.035,3.473 C24.057,3.845 25.079,4.218 26.102,4.591 C26.907,4.884 27.207,5.311 27.207,6.165 L27.207,6.165 C27.206,7.416 27.209,8.667 27.212,9.917 C27.218,12.835 27.225,15.852 27.191,18.820 ZM24.381,9.430 C24.380,8.619 24.379,7.806 24.379,6.990 C24.339,6.975 24.299,6.960 24.259,6.945 L22.982,6.480 C20.000,5.395 16.917,4.272 13.882,3.177 C13.816,3.153 13.698,3.157 13.618,3.186 C11.785,3.844 9.923,4.521 8.124,5.176 L3.129,6.991 L3.129,7.021 C3.129,8.037 3.128,9.054 3.126,10.070 C3.123,12.701 3.119,15.421 3.141,18.095 C3.150,19.082 3.233,20.136 3.396,21.319 C3.837,24.512 5.371,27.193 7.956,29.290 C9.797,30.782 11.905,31.920 13.725,32.836 C13.741,32.840 13.774,32.839 13.788,32.834 C15.349,32.055 17.384,30.974 19.246,29.541 C22.266,27.215 23.945,24.112 24.239,20.317 C24.353,18.843 24.363,17.330 24.373,15.867 L24.373,15.765 C24.387,13.658 24.384,11.509 24.381,9.430 ZM6.890,17.490 L8.837,15.544 L12.393,19.108 L19.283,12.213 L21.242,14.174 L12.409,23.007 L6.890,17.490 Z"/>
</svg>